<svg width="193" height="83" viewBox="0 0 193 83" fill="none" xmlns="http://www.w3.org/2000/svg">
<path d="M77.6925 4.41382H75.5991L53.7384 58.9204H61.4746L65.1854 48.9264H87.4864L91.1971 58.9204H98.9333L77.6925 4.41382ZM85.0512 42.2426H67.6563L76.6593 19.8836L85.0425 42.2426H85.0512Z" fill="#158864"/>
<path d="M94.771 4.44043V5.81831V6.51618V11.124H110.513V58.9112H115.571H116.218H117.782V11.124H133.524V6.51618V5.49621V4.44043H94.771Z" fill="#158864"/>
<path d="M20.8987 78.1033L17.5742 71.572H15.3998V80.4834H17.107V74.0323L20.4314 80.4834H22.6058V71.572H20.8987V78.1033Z" fill="#158864"/>
<path d="M37.8329 71.572H37.2127V80.5103H37.8329H38.9739H43.5115V78.8728H38.9739V76.8777H42.7745V75.2313H38.9739V73.1823H43.5115V71.572H38.9739H37.8329Z" fill="#158864"/>
<path d="M58.0809 73.1823H60.6416V80.5103H62.4028V73.1823H64.9635V71.572H58.0809V73.1823Z" fill="#158864"/>
<path d="M87.6117 77.5219L85.8147 71.572H84.3773L82.5801 77.5219L81.3763 71.572H79.5523L81.7265 80.5103H83.3708L85.1408 74.2383L86.7851 80.5103H88.4653L90.6397 71.572H88.8158L87.6117 77.5219Z" fill="#158864"/>
<path d="M110.453 71.8666C109.923 71.6073 109.339 71.4551 108.656 71.4551C107.973 71.4551 107.363 71.5983 106.859 71.8666C106.329 72.1262 105.943 72.5108 105.655 73.0121C105.359 73.513 105.215 74.0945 105.215 74.7387V77.262C105.215 77.9062 105.359 78.4966 105.655 78.9886C105.952 79.4898 106.329 79.8655 106.859 80.134C107.39 80.3933 107.973 80.5455 108.656 80.5455C109.339 80.5455 109.95 80.4023 110.453 80.134C110.983 79.8744 111.37 79.4898 111.657 78.9886C111.954 78.4876 112.098 77.9062 112.098 77.262V74.7387C112.098 74.0945 111.954 73.5041 111.657 73.0121C111.397 72.5467 110.983 72.1621 110.453 71.8666ZM110.247 77.3424C110.247 77.6645 110.184 77.9328 110.04 78.1655C109.923 78.3982 109.717 78.577 109.483 78.7203C109.249 78.8366 108.953 78.926 108.629 78.926C108.306 78.926 108.037 78.8635 107.776 78.7203C107.542 78.6039 107.336 78.3982 107.219 78.1655C107.102 77.9328 107.012 77.6645 107.012 77.3424V74.7387C107.012 74.4166 107.075 74.1483 107.219 73.9156C107.336 73.6829 107.542 73.5041 107.776 73.3608C108.01 73.2445 108.306 73.155 108.629 73.155C108.953 73.155 109.223 73.2178 109.483 73.3608C109.717 73.4771 109.923 73.6829 110.04 73.9156C110.157 74.1483 110.247 74.4166 110.247 74.7387V77.3424Z" fill="#158864"/>
<path d="M132.164 76.5822C132.55 76.3498 132.874 76.0543 133.08 75.6428C133.287 75.2313 133.404 74.7662 133.404 74.2383C133.404 73.7102 133.287 73.2451 133.08 72.8335C132.874 72.422 132.55 72.1265 132.164 71.8939C131.778 71.6615 131.311 71.572 130.807 71.572H126.656V80.5103H128.426V76.9043H129.514L131.634 80.5103H133.781L131.544 76.8149C131.751 76.7524 131.957 76.6719 132.164 76.5822ZM128.462 73.1823H130.673C130.852 73.1823 131.023 73.2092 131.14 73.2986C131.256 73.3881 131.373 73.5044 131.463 73.6835C131.553 73.8265 131.58 74.0323 131.58 74.2383C131.58 74.4441 131.553 74.6229 131.463 74.7928C131.373 74.9361 131.283 75.0883 131.14 75.1777C130.996 75.2671 130.843 75.2941 130.673 75.2941H128.462V73.1823Z" fill="#158864"/>
<path d="M155.441 71.572H153.204L150.14 76.0008V71.572H148.379V80.5103H150.14V78.5776L151.497 76.7882L153.734 80.5103H155.818L152.647 75.2671L155.441 71.572Z" fill="#158864"/>
<path d="M177.13 76.4389C176.869 76.0899 176.537 75.8216 176.133 75.6784C175.719 75.5351 175.252 75.3832 174.632 75.2668C174.605 75.2668 174.569 75.2668 174.542 75.2399C174.515 75.2399 174.479 75.2399 174.452 75.213H174.336C173.922 75.1236 173.599 75.07 173.365 74.9806C173.132 74.9178 172.952 74.8015 172.772 74.6585C172.628 74.5153 172.539 74.3095 172.539 74.041C172.539 73.7458 172.682 73.4864 172.979 73.3342C173.275 73.1553 173.689 73.0746 174.246 73.0746C174.596 73.0746 174.983 73.1374 175.396 73.2807C175.782 73.3967 176.16 73.6028 176.546 73.8352L177.283 72.4038C176.986 72.198 176.663 72.0548 176.312 71.9025C175.989 71.7596 175.639 71.6701 175.279 71.5807C174.929 71.491 174.569 71.4644 174.246 71.4644C173.509 71.4644 172.889 71.5807 172.359 71.7865C171.829 71.9922 171.442 72.3143 171.182 72.7259C170.921 73.1374 170.768 73.6384 170.768 74.2201C170.768 74.8643 170.912 75.3653 171.209 75.7409C171.505 76.0899 171.856 76.3585 172.269 76.4748C172.682 76.6178 173.213 76.7341 173.833 76.8236L173.976 76.8505H174.039C174.39 76.913 174.686 76.9668 174.92 77.0293C175.153 77.0921 175.333 77.2085 175.477 77.3248C175.62 77.4678 175.683 77.6469 175.683 77.8793C175.683 78.2283 175.54 78.4969 175.216 78.6668C174.893 78.8367 174.452 78.962 173.859 78.962C173.356 78.962 172.862 78.8725 172.386 78.7293C171.91 78.5863 171.505 78.3447 171.119 78.0851L170.292 79.4632C170.589 79.6956 170.939 79.9014 171.29 80.0536C171.676 80.2325 172.08 80.3488 172.494 80.4382C172.934 80.5279 173.141 80.5546 173.141 80.5546H173.815C174.578 80.5546 175.225 80.4382 175.755 80.2325C176.285 80.0267 176.699 79.7046 176.995 79.2931C177.292 78.8815 177.408 78.4162 177.408 77.8258C177.525 77.271 177.382 76.7969 177.112 76.4479L177.13 76.4389Z" fill="#158864"/>
<path d="M162.553 3.0625C147.081 3.0625 134.457 15.3739 134.457 31.1301C134.457 46.8861 146.82 58.9112 162.265 58.9112C177.711 58.9112 190.371 46.5996 190.371 30.8436C190.371 15.0876 178.007 3.0625 162.553 3.0625ZM162.553 51.8786C150.962 51.8786 142.013 43.0029 142.013 30.8436C142.013 18.6844 150.782 10.095 162.256 10.095C173.73 10.095 182.796 18.9707 182.796 31.1301C182.769 42.7613 174 51.8786 162.553 51.8786Z" fill="#158864"/>
<path d="M45.4142 45.5528C41.7662 49.4807 36.5817 51.8786 30.6965 51.8786C19.1058 51.8786 10.1567 43.0029 10.1567 30.8436C10.1567 18.6844 18.9351 10.095 30.4091 10.095C36.4111 10.095 41.7122 12.466 45.4142 16.4565L50.5624 11.3029C45.5398 6.19403 38.5045 3.0625 30.6785 3.0625C15.1973 3.0625 2.57333 15.3739 2.57333 31.1301C2.57333 46.8861 14.9368 58.9112 30.3821 58.9112C38.2351 58.9112 45.3601 55.7439 50.4548 50.5633L45.4232 45.5528H45.4142Z" fill="#158864"/>
</svg>
