<svg width="388" height="81" viewBox="0 0 388 81" fill="none" xmlns="http://www.w3.org/2000/svg">
<path d="M185.46 60.6182V16.1514H192.733V24.5871L191.474 32.239L192.733 39.8228V60.6182H185.46ZM202.455 48.1945C200.031 48.1945 197.871 47.6819 195.976 46.6566C194.082 45.6314 192.592 44.2255 191.513 42.4388C190.435 40.6522 189.892 38.6242 189.892 36.3588V27.335C189.892 25.0696 190.442 23.0418 191.548 21.2551C192.649 19.4685 194.147 18.0624 196.045 17.0372C197.938 16.0119 200.078 15.4993 202.46 15.4993C205.325 15.4993 207.914 16.2305 210.227 17.6893C212.542 19.1517 214.371 21.1119 215.716 23.5732C217.058 26.0384 217.732 28.8163 217.732 31.911C217.732 35.0056 217.061 37.7196 215.716 40.1847C214.371 42.6461 212.542 44.5985 210.227 46.0385C207.914 47.4784 205.322 48.1945 202.46 48.1945H202.455ZM201.263 41.3947C203.027 41.3947 204.579 40.9913 205.925 40.1847C207.27 39.3781 208.326 38.2548 209.099 36.815C209.869 35.375 210.259 33.7203 210.259 31.847C210.259 29.9735 209.869 28.315 209.099 26.879C208.326 25.439 207.27 24.3196 205.925 23.5092C204.579 22.7025 203.027 22.2991 201.263 22.2991C199.498 22.2991 197.935 22.7025 196.566 23.5092C195.203 24.3157 194.142 25.439 193.392 26.879C192.641 28.3188 192.267 29.9735 192.267 31.847C192.267 33.7203 192.641 35.3788 193.392 36.815C194.142 38.2548 195.198 39.3781 196.566 40.1847C197.935 40.9913 199.498 41.3947 201.263 41.3947Z" fill="#370076"/>
<path d="M238.689 48.1945C235.688 48.1945 232.99 47.4857 230.589 46.0685C228.187 44.6512 226.277 42.7327 224.871 40.3127C223.461 37.8928 222.755 35.2014 222.755 32.235C222.755 29.2685 223.461 26.6036 224.871 24.2251C226.282 21.8505 228.187 19.962 230.589 18.5673C232.99 17.1727 235.693 16.4753 238.689 16.4753C240.937 16.4753 243.053 16.89 245.035 17.7193C247.017 18.5485 248.712 19.7245 250.127 21.2512L247.878 23.475C246.731 22.2539 245.366 21.3076 243.776 20.6293C242.191 19.9545 240.491 19.6153 238.684 19.6153C236.305 19.6153 234.175 20.1731 232.304 21.2851C230.429 22.3971 228.942 23.8897 227.84 25.763C226.739 27.6364 226.186 29.7962 226.186 32.235C226.186 34.6737 226.736 36.8562 227.84 38.7749C228.942 40.6934 230.429 42.2199 232.304 43.3507C234.175 44.4854 236.305 45.0507 238.684 45.0507C240.536 45.0507 242.263 44.7115 243.875 44.0368C245.484 43.3622 246.859 42.3896 248.007 41.1269L250.255 43.3507C248.801 44.8774 247.069 46.0647 245.065 46.9128C243.06 47.761 240.933 48.1869 238.684 48.1869L238.689 48.1945Z" fill="#370076"/>
<path d="M257.334 47.5387V1.63574H260.708V47.5387H257.334ZM280.413 47.5387V29.4911C280.413 26.5285 279.54 24.1311 277.802 22.2993C276.061 20.4673 273.735 19.5514 270.827 19.5514C268.842 19.5514 267.092 19.9774 265.572 20.8255C264.05 21.6735 262.862 22.8421 262 24.3234C261.139 25.8048 260.712 27.5273 260.712 29.4874L258.992 28.5073C258.992 26.1968 259.541 24.1387 260.646 22.3294C261.749 20.5202 263.257 19.0916 265.179 18.0474C267.095 16.9996 269.245 16.4794 271.624 16.4794C274.003 16.4794 276.175 17.0147 278.004 18.0814C279.833 19.148 281.255 20.6445 282.269 22.5593C283.283 24.478 283.79 26.6566 283.79 29.0991V47.5387H280.418H280.413Z" fill="#370076"/>
<path d="M307.257 48.1946C304.171 48.1946 301.415 47.4972 298.994 46.1026C296.57 44.7079 294.652 42.8119 293.243 40.4147C291.833 38.0174 291.127 35.3147 291.127 32.3069C291.127 29.2989 291.809 26.6076 293.178 24.2329C294.543 21.8583 296.429 19.9698 298.83 18.5752C301.232 17.1805 303.912 16.4832 306.865 16.4832C309.643 16.4832 312.109 17.1051 314.271 18.3489C316.433 19.5928 318.117 21.304 319.328 23.4827C320.54 25.6615 321.147 28.1907 321.147 31.0667C321.147 31.3267 321.125 31.666 321.083 32.0806C321.041 32.4953 320.972 32.9852 320.883 33.5507H293.509V30.6747H318.967L317.842 31.5906C317.931 29.1934 317.534 27.09 316.653 25.2808C315.772 23.4714 314.493 22.0655 312.819 21.0629C311.142 20.0602 309.137 19.5589 306.8 19.5589C304.463 19.5589 302.238 20.0941 300.385 21.1609C298.534 22.2313 297.088 23.7014 296.056 25.5747C295.019 27.4482 294.501 29.6306 294.501 32.1146C294.501 34.7306 295.037 37.0072 296.12 38.9483C297.199 40.8895 298.709 42.3935 300.649 43.4603C302.589 44.527 304.857 45.0623 307.459 45.0623C309.441 45.0623 311.282 44.7003 312.983 43.9842C314.678 43.2643 316.1 42.1863 317.248 40.7464L319.496 42.9024C318.04 44.5609 316.257 45.8575 314.141 46.7923C312.025 47.7272 309.732 48.1983 307.266 48.1983L307.257 48.1946Z" fill="#370076"/>
<path d="M342.767 48.1945C339.767 48.1945 337.069 47.4857 334.667 46.0685C332.266 44.6512 330.356 42.7327 328.949 40.3127C327.539 37.8928 326.834 35.2014 326.834 32.235C326.834 29.2685 327.539 26.6036 328.949 24.2251C330.36 21.8505 332.266 19.962 334.667 18.5673C337.069 17.1727 339.771 16.4753 342.767 16.4753C345.016 16.4753 347.131 16.89 349.113 17.7193C351.095 18.5485 352.791 19.7245 354.205 21.2512L351.956 23.475C350.809 22.2539 349.444 21.3076 347.855 20.6293C346.27 19.9545 344.569 19.6153 342.763 19.6153C340.384 19.6153 338.254 20.1731 336.383 21.2851C334.507 22.3971 333.021 23.8897 331.92 25.763C330.817 27.6364 330.264 29.7962 330.264 32.235C330.264 34.6737 330.814 36.8562 331.92 38.7749C333.021 40.6934 334.507 42.2199 336.383 43.3507C338.254 44.4854 340.384 45.0507 342.763 45.0507C344.616 45.0507 346.342 44.7115 347.954 44.0368C349.563 43.3622 350.939 42.3896 352.085 41.1269L354.335 43.3507C352.879 44.8774 351.149 46.0647 349.143 46.9128C347.139 47.761 345.011 48.1869 342.763 48.1869L342.767 48.1945Z" fill="#370076"/>
<path d="M361.412 47.5387V1.63574H364.786V47.5387H361.412ZM381.449 47.5387L364.324 31.9111L381.053 17.1314H385.417L367.563 32.7591L367.629 30.8631L386.012 47.5387H381.449Z" fill="#370076"/>
<path d="M157.019 47.4216H149.906V30.0299C149.906 25.9476 146.548 22.623 142.42 22.623C138.292 22.623 134.93 25.9438 134.93 30.0299V47.4216H127.818V30.0299C127.818 22.069 134.366 15.5933 142.416 15.5933C150.466 15.5933 157.014 22.069 157.014 30.0299V47.4216H157.019Z" fill="#370076"/>
<path d="M179.136 47.4216H172.025V30.0299C172.025 25.9476 168.666 22.623 164.534 22.623C160.403 22.623 157.049 25.9438 157.049 30.0299V47.4216H149.936V30.0299C149.936 22.069 156.485 15.5933 164.534 15.5933C172.585 15.5933 179.133 22.069 179.133 30.0299V47.4216H179.136Z" fill="#370076"/>
<path d="M225.71 79.2725V60.8179H227.719V79.2725H225.71ZM227.04 70.6596V68.8352H238.514V70.6596H227.04ZM237.941 79.2725V60.8179H239.95V79.2725H237.941Z" fill="#370076"/>
<path d="M250.119 79.5401C248.853 79.5401 247.715 79.2536 246.701 78.6807C245.686 78.1077 244.886 77.3237 244.299 76.321C243.712 75.3185 243.418 74.1914 243.418 72.94C243.418 71.6886 243.704 70.5917 244.272 69.6003C244.84 68.609 245.625 67.825 246.62 67.252C247.616 66.6791 248.727 66.3926 249.956 66.3926C251.183 66.3926 252.166 66.6527 253.061 67.1692C253.957 67.6855 254.663 68.4092 255.177 69.329C255.692 70.2487 255.951 71.3078 255.951 72.5065C255.951 72.6498 255.944 72.8155 255.924 73.0041C255.905 73.1926 255.872 73.4111 255.818 73.66H244.78V72.0504H254.762L254.083 72.6422C254.103 71.7301 253.942 70.9385 253.607 70.2675C253.271 69.5966 252.795 69.0726 252.17 68.6995C251.545 68.3225 250.802 68.1379 249.932 68.1379C249.011 68.1379 248.206 68.3376 247.52 68.7409C246.834 69.1443 246.296 69.6984 245.908 70.4032C245.519 71.1081 245.324 71.9373 245.324 72.8834C245.324 73.8296 245.526 74.7003 245.935 75.4315C246.343 76.1665 246.91 76.7357 247.641 77.1465C248.374 77.5575 249.22 77.7647 250.176 77.7647C250.936 77.7647 251.64 77.6253 252.291 77.3501C252.943 77.0749 253.493 76.6566 253.947 76.1025L255.193 77.3351C254.594 78.0512 253.855 78.5941 252.97 78.9709C252.082 79.3478 251.133 79.5363 250.124 79.5363L250.119 79.5401Z" fill="#370076"/>
<path d="M264.358 79.5406C263.166 79.5406 262.09 79.2503 261.13 78.6698C260.174 78.0894 259.412 77.3054 258.851 76.3215C258.291 75.3378 258.01 74.2295 258.01 72.9969C258.01 71.7645 258.287 70.6223 258.851 69.631C259.412 68.6396 260.167 67.8519 261.115 67.2713C262.065 66.6909 263.136 66.4006 264.328 66.4006C265.304 66.4006 266.177 66.5929 266.947 66.9774C267.717 67.3618 268.342 67.8971 268.833 68.5869C269.321 69.2766 269.611 70.0757 269.702 70.9879V74.9307C269.593 75.8429 269.299 76.6457 268.823 77.343C268.342 78.0403 267.724 78.5832 266.962 78.9639C266.204 79.3483 265.335 79.5406 264.358 79.5406ZM264.656 77.7426C265.994 77.7426 267.061 77.3054 267.858 76.4272C268.655 75.5526 269.05 74.3992 269.05 72.9669C269.05 72.0208 268.872 71.1877 268.509 70.4716C268.147 69.7553 267.633 69.1975 266.962 68.7941C266.291 68.3909 265.513 68.1912 264.63 68.1912C263.746 68.1912 262.952 68.3984 262.255 68.8092C261.557 69.22 261.009 69.7855 260.601 70.498C260.192 71.2141 259.991 72.0357 259.991 72.9669C259.991 73.8978 260.192 74.7196 260.601 75.4357C261.009 76.1519 261.564 76.7135 262.27 77.1245C262.976 77.5353 263.773 77.7426 264.656 77.7426ZM268.944 79.2729V75.8919L269.326 72.7821L268.944 69.7516V66.6683H270.869V79.2729H268.944Z" fill="#370076"/>
<path d="M274.665 79.2729V60.283H276.59V79.2729H274.665Z" fill="#370076"/>
<path d="M287.518 66.6643H279.194V68.3794H287.518V66.6643Z" fill="#370076"/>
<path d="M284.32 75.8389V61.3533H282.395V75.8916C282.395 77.7574 283.925 79.269 285.811 79.269H287.521V77.554H286.055C285.098 77.554 284.32 76.785 284.32 75.8389Z" fill="#370076"/>
<path d="M343.731 66.6643H335.407V68.3794H343.731V66.6643Z" fill="#370076"/>
<path d="M340.534 75.8389V61.3533H338.609V75.8916C338.609 77.7574 340.137 79.269 342.023 79.269H343.735V77.554H342.267C341.311 77.554 340.534 76.785 340.534 75.8389Z" fill="#370076"/>
<path d="M290.098 79.2729V60.283H292.023V79.2729H290.098ZM299.403 79.2729V71.8699C299.403 70.7806 299.067 69.891 298.4 69.2012C297.734 68.5114 296.853 68.1684 295.77 68.1684C295.046 68.1684 294.405 68.3268 293.845 68.6396C293.285 68.9524 292.843 69.3859 292.516 69.94C292.191 70.4941 292.028 71.1311 292.028 71.8435L291.159 71.361C291.159 70.415 291.384 69.5631 291.837 68.813C292.29 68.063 292.904 67.4711 293.682 67.0415C294.459 66.6117 295.335 66.3969 296.312 66.3969C297.287 66.3969 298.156 66.6154 298.914 67.0527C299.674 67.4899 300.269 68.093 300.691 68.8621C301.113 69.631 301.328 70.5243 301.328 71.5458V79.2692H299.403V79.2729Z" fill="#370076"/>
<path d="M311.661 63.9579C311.299 63.9579 310.99 63.8222 310.739 63.5546C310.482 63.2869 310.357 62.9742 310.357 62.6159C310.357 62.2579 310.482 61.9262 310.739 61.6774C310.993 61.4287 311.299 61.3005 311.661 61.3005C312.057 61.3005 312.38 61.4248 312.625 61.6774C312.869 61.93 312.992 62.2391 312.992 62.6159C312.992 62.993 312.869 63.2869 312.625 63.5546C312.38 63.8222 312.061 63.9579 311.661 63.9579ZM310.712 79.2727V66.6681H312.637V79.2727H310.712Z" fill="#370076"/>
<path d="M316.463 79.2726V66.6679H318.388V79.2726H316.463ZM325.763 79.2726V71.8697C325.763 70.7802 325.427 69.8907 324.76 69.2009C324.094 68.5111 323.213 68.1682 322.13 68.1682C321.406 68.1682 320.767 68.3264 320.206 68.6393C319.646 68.9522 319.203 69.3857 318.876 69.9397C318.551 70.4938 318.388 71.1309 318.388 71.8431L317.519 71.3608C317.519 70.4147 317.744 69.5627 318.197 68.8126C318.651 68.0626 319.264 67.4707 320.042 67.0411C320.819 66.6113 321.695 66.3965 322.672 66.3965C323.647 66.3965 324.516 66.6303 325.276 67.0938C326.034 67.5575 326.629 68.1831 327.051 68.971C327.475 69.7587 327.688 70.6144 327.688 71.5454V79.2688H325.763V79.2726Z" fill="#370076"/>
<path d="M347.706 63.9579C347.344 63.9579 347.035 63.8222 346.784 63.5546C346.527 63.2869 346.402 62.9742 346.402 62.6159C346.402 62.2579 346.527 61.9262 346.784 61.6774C347.038 61.4287 347.344 61.3005 347.706 61.3005C348.102 61.3005 348.426 61.4248 348.67 61.6774C348.914 61.93 349.037 62.2391 349.037 62.6159C349.037 62.993 348.914 63.2869 348.67 63.5546C348.426 63.8222 348.106 63.9579 347.706 63.9579ZM346.757 79.2727V66.6681H348.682V79.2727H346.757Z" fill="#370076"/>
<path d="M352.505 79.2729V66.6683H354.43V79.2729H352.505ZM361.294 79.2729V71.5495C361.294 70.5129 360.978 69.6913 360.346 69.0806C359.712 68.4738 358.917 68.1685 357.959 68.1685C357.308 68.1685 356.717 68.3079 356.183 68.5832C355.649 68.862 355.227 69.2503 354.911 69.7516C354.593 70.2529 354.434 70.8409 354.434 71.5232L353.564 71.1763C353.564 70.2115 353.781 69.3709 354.217 68.6547C354.652 67.9386 355.234 67.3845 355.965 66.9925C356.698 66.6005 357.525 66.4006 358.448 66.4006C359.369 66.4006 360.158 66.5966 360.874 66.9925C361.588 67.3845 362.16 67.9386 362.582 68.6547C363.006 69.3709 363.219 70.219 363.219 71.2029V79.2768H361.294V79.2729ZM370.053 79.2729V71.5495C370.053 70.5129 369.737 69.6913 369.105 69.0806C368.471 68.4738 367.674 68.1685 366.718 68.1685C366.086 68.1685 365.502 68.3079 364.969 68.5832C364.435 68.862 364.011 69.2503 363.695 69.7516C363.379 70.2529 363.219 70.8409 363.219 71.5232L362.079 71.1763C362.133 70.2115 362.392 69.3709 362.853 68.6547C363.315 67.9386 363.92 67.3845 364.672 66.9925C365.423 66.6005 366.25 66.4006 367.153 66.4006C368.056 66.4006 368.876 66.5966 369.607 66.9925C370.339 67.3845 370.919 67.9386 371.341 68.6547C371.765 69.3709 371.978 70.219 371.978 71.2029V79.2768H370.053V79.2729Z" fill="#370076"/>
<path d="M381.419 79.5401C380.153 79.5401 379.015 79.2536 378 78.6807C376.986 78.1077 376.186 77.3237 375.599 76.321C375.012 75.3185 374.718 74.1914 374.718 72.94C374.718 71.6886 375.004 70.5917 375.572 69.6003C376.14 68.609 376.925 67.825 377.92 67.252C378.916 66.6791 380.027 66.3926 381.256 66.3926C382.483 66.3926 383.465 66.6527 384.361 67.1692C385.257 67.6893 385.963 68.4092 386.476 69.329C386.992 70.2487 387.251 71.3078 387.251 72.5065C387.251 72.6498 387.239 72.8155 387.224 73.0041C387.205 73.1926 387.172 73.4111 387.113 73.66H376.075V72.0504H386.059L385.38 72.6422C385.398 71.7301 385.239 70.9385 384.904 70.2675C384.568 69.5966 384.092 69.0726 383.465 68.6995C382.841 68.3264 382.098 68.1379 381.229 68.1379C380.306 68.1379 379.501 68.3376 378.815 68.7409C378.129 69.1443 377.593 69.6984 377.203 70.4032C376.815 71.1081 376.621 71.9373 376.621 72.8834C376.621 73.8296 376.823 74.7003 377.23 75.4315C377.638 76.1665 378.206 76.7357 378.938 77.1465C379.669 77.5575 380.516 77.7647 381.473 77.7647C382.231 77.7647 382.937 77.6253 383.588 77.3501C384.24 77.0749 384.788 76.6566 385.242 76.1025L386.488 77.3351C385.891 78.0512 385.151 78.5941 384.267 78.9709C383.381 79.3478 382.429 79.5363 381.419 79.5363V79.5401Z" fill="#370076"/>
<path d="M114.627 1.45947L81.3708 37.6866V22.2361C81.3708 18.9492 79.3812 16.0355 76.2977 14.8105C73.2141 13.5854 69.738 14.3242 67.4396 16.6952L46.659 38.1088V22.1569C46.659 18.8814 44.6771 15.9715 41.6087 14.7426C38.5443 13.5138 35.0681 14.2338 32.7622 16.5783L3.52764 46.3109L0.749023 49.2472H13.5444L37.4008 24.9839V40.9584C37.4008 44.2415 39.3905 47.159 42.474 48.3841C45.5575 49.6091 49.0337 48.8703 51.3321 46.4993L72.1126 25.0857V40.6417C72.1126 43.9701 74.1404 46.8989 77.2772 48.1051C80.4179 49.3075 83.9093 48.4971 86.1772 46.0432L127.311 1.45947H114.623H114.627Z" fill="url(#paint0_linear_18_1595)"/>
<defs>
<linearGradient id="paint0_linear_18_1595" x1="0.749023" y1="25.3559" x2="127.311" y2="25.3559" gradientUnits="userSpaceOnUse">
<stop stop-color="#370076"/>
<stop offset="0.33" stop-color="#7066FB"/>
<stop offset="0.98" stop-color="#50C8C2"/>
</linearGradient>
</defs>
</svg>
