<svg width="273" height="60" viewBox="0 0 273 60" fill="none" xmlns="http://www.w3.org/2000/svg">
<g clip-path="url(#clip0_1_253)">
<path d="M70.906 11.5278H84.3254C98.4893 11.5278 104.281 19.306 104.281 28.8136C104.281 38.3214 98.4893 46.0995 84.3254 46.0995H70.906V11.5278ZM83.5761 38.8995C91.3154 38.8995 94.8153 35.7318 94.8153 28.8136C94.8153 21.8955 91.3154 18.7278 83.5761 18.7278H80.1923V38.8995H83.5761Z" fill="black"/>
<path d="M118.981 57.3422H110.493L115.825 44.7202L105.963 21.2061H114.505L120.122 35.6693L125.739 21.2061H134.054L118.972 57.3372L118.981 57.3422Z" fill="black"/>
<path d="M136.035 21.206H144.35L144.635 25.6417C146.124 22.3575 149.967 20.5112 153.293 20.5112C159.887 20.5112 162.468 25.1218 162.468 31.2871V46.0951H153.578V32.9C153.578 28.8675 152.491 27.4246 149.909 27.4246C147.158 27.4246 144.92 30.0773 144.92 32.9583V46.0951H136.031V21.2012L136.035 21.206Z" fill="black"/>
<path d="M185.782 46.1048L185.556 42.5875C183.434 45.5851 179.706 46.7947 176.84 46.7947C170.188 46.7947 165.373 41.3777 165.373 33.6579C165.373 25.938 170.188 20.521 176.84 20.521C179.706 20.521 183.434 21.7308 185.556 24.7284L185.782 21.2108H193.981V46.1048H185.782ZM179.818 26.8561C176.665 26.8561 174.253 29.334 174.253 33.6579C174.253 37.9817 176.66 40.4595 179.818 40.4595C182.973 40.4595 185.382 37.9817 185.382 33.6579C185.382 29.334 182.973 26.8561 179.818 26.8561Z" fill="black"/>
<path d="M198.919 21.206H207.234L207.519 25.6417C209.125 22.2992 212.566 20.5112 215.835 20.5112C220.479 20.5112 222.83 22.7607 223.805 25.9867C225.527 22.7024 228.678 20.5112 232.579 20.5112C239.174 20.5112 241.179 25.1218 241.179 31.2871V46.0951H232.289V32.4967C232.289 29.0376 231.545 27.4246 229.021 27.4246C226.499 27.4246 224.492 29.5575 224.492 32.9583V46.0951H215.603V32.4967C215.603 29.0376 214.916 27.4246 212.334 27.4246C209.753 27.4246 207.804 29.5575 207.804 32.9583V46.0951H198.916V21.2012L198.919 21.206Z" fill="black"/>
<path d="M258.722 47.0217C250.693 47.0217 244.441 41.4299 244.441 33.6516C244.441 25.8736 250.693 20.2817 258.722 20.2817C266.752 20.2817 273.002 25.9853 273.002 33.6516C273.002 41.3181 266.693 47.0217 258.722 47.0217ZM258.722 26.5051C255.454 26.5051 253.157 28.9829 253.157 33.6516C253.157 38.3205 255.507 40.7983 258.722 40.7983C261.936 40.7983 264.286 38.3788 264.286 33.6516C264.286 28.9247 261.994 26.5051 258.722 26.5051Z" fill="black"/>
<path d="M57.8535 30.3878C59.3471 19.3594 54.5856 9.4291 45.9615 3.99267C40.1027 0.295506 33.1609 -0.88506 26.4175 0.664736L2.28566 6.21776C2.28566 6.21776 2.26633 6.22263 2.25665 6.22748C0.516384 6.91251 -0.276406 8.64206 0.0861502 10.2307L8.46362 47.0227C8.49746 47.1636 8.63281 47.2558 8.77783 47.2267L15.8114 45.8275C15.9709 45.7983 16.0676 45.9927 15.9516 46.1043L1.6959 59.7223C1.57505 59.8339 1.68623 60.0331 1.84576 59.9943L19.0308 55.7578L37.9709 51.3999C47.9 49.1165 55.6491 41.3141 57.8487 30.3975C57.8487 30.3975 57.8487 30.3878 57.8487 30.383L57.8535 30.3878ZM33.4123 33.4437L32.2715 39.4339C32.2425 39.5894 32.0346 39.6137 31.9669 39.4728L29.5934 34.4397C29.5499 34.3473 29.4291 34.3181 29.3468 34.3814L22.2842 39.9927C22.1683 40.085 21.9942 39.9782 22.028 39.8323L23.9423 31.1943C23.9665 31.0923 23.8844 30.9951 23.778 30.9999L17.8707 31.3109C17.7112 31.3207 17.6387 31.1165 17.7644 31.0193L23.227 26.8461C23.2994 26.7878 23.3139 26.681 23.251 26.6129L14.5352 16.6437C14.4289 16.5222 14.5497 16.3328 14.7044 16.3862L26.5141 20.2778C26.6156 20.3117 26.7171 20.2389 26.7219 20.1369L27.1764 13.7627C27.186 13.6024 27.3987 13.5538 27.476 13.6947L30.8262 19.5538C30.8744 19.6365 30.9857 19.6606 31.0581 19.6023L40.272 12.7668C40.3976 12.6745 40.5716 12.8008 40.5184 12.9514L36.7431 23.5668C36.7092 23.659 36.7673 23.761 36.8639 23.7806L43.6316 25.1409C43.7863 25.17 43.8057 25.3886 43.6606 25.4469L37.8936 27.8227C37.7968 27.8614 37.7629 27.983 37.8258 28.0656L44.1295 36.8445C44.2214 36.9708 44.0909 37.1457 43.9458 37.0923L33.6202 33.3369C33.5284 33.3027 33.4269 33.361 33.4075 33.4582L33.4123 33.4437Z" fill="black"/>
</g>
<defs>
<clipPath id="clip0_1_253">
<rect width="273" height="60" fill="white"/>
</clipPath>
</defs>
</svg>
