<svg width="292" height="42" viewBox="0 0 292 42" fill="none" xmlns="http://www.w3.org/2000/svg">
<g clip-path="url(#clip0_1_276)">
<path d="M115.565 6.4429C113.626 5.87148 111.819 5.5634 110.19 5.5634C107.898 5.5634 106.093 6.00316 104.726 6.88515C103.361 7.76467 102.7 8.95473 102.7 10.4951C102.7 11.8591 103.098 13.0045 103.933 13.8865C104.771 14.766 105.74 15.4268 106.928 15.9561C108.119 16.4405 109.792 17.0567 111.908 17.7176C114.551 18.5548 116.711 19.3027 118.342 20.0505C119.973 20.7983 121.382 21.899 122.528 23.3524C123.674 24.8058 124.246 26.7436 124.246 29.166C124.246 31.4121 123.629 33.3499 122.439 35.022C121.248 36.6967 119.53 37.9711 117.372 38.8979C115.215 39.8221 112.701 40.2618 109.882 40.2618C107.063 40.2618 104.241 39.6905 101.509 38.5873C99.5252 37.7499 97.7203 36.7389 96.1343 35.5487C95.1647 34.8008 94.8119 33.4346 95.386 32.3338C96.0921 30.9251 97.897 30.5277 99.1748 31.4543C100.408 32.3338 101.73 33.0841 103.14 33.7004C105.474 34.6692 107.722 35.1985 109.924 35.1985C112.524 35.1985 114.595 34.6692 116.092 33.6581C117.589 32.6469 118.339 31.2358 118.339 29.5188C118.339 28.155 117.941 27.0096 117.106 26.1277C116.268 25.2481 115.257 24.5425 114.021 24.0133C112.788 23.4841 111.07 22.9126 108.955 22.2965C106.354 21.5039 104.241 20.7561 102.61 20.0058C100.98 19.2579 99.5701 18.1573 98.4687 16.7039C97.3226 15.2504 96.7509 13.3573 96.7509 10.9796C96.7509 8.91002 97.3226 7.06154 98.4687 5.47644C99.6147 3.89133 101.246 2.65903 103.316 1.77703C105.387 0.939756 107.811 0.5 110.585 0.5C112.92 0.5 115.212 0.852798 117.459 1.51367C118.824 1.95343 120.102 2.43791 121.293 3.05406C122.526 3.67022 123.055 5.16836 122.483 6.40067L122.396 6.62181C121.78 7.89884 120.281 8.47025 119.003 7.8541C117.857 7.23796 116.711 6.7982 115.567 6.44541L115.565 6.4429Z" fill="#0F323E"/>
<path d="M164.077 38.4134L160.596 30.4879H140.02L136.626 38.4134C136.229 39.3376 135.304 39.9538 134.247 39.9538C132.398 39.9538 131.162 38.0606 131.913 36.3439L146.541 3.44909C147.246 1.90869 148.788 0.89502 150.461 0.89502C152.179 0.89502 153.678 1.90869 154.381 3.44909L168.967 36.3439C169.715 38.0184 168.482 39.9538 166.632 39.9538H166.456C165.442 39.9538 164.517 39.3376 164.077 38.4134ZM142.135 25.5983H158.526L150.287 6.61931L142.135 25.5983Z" fill="#0F323E"/>
<path d="M175.532 0.89502H175.664C176.721 0.89502 177.69 1.5559 178.088 2.56957L190.336 34.011L202.585 2.56957C202.982 1.5559 203.95 0.89502 205.009 0.89502C206.858 0.89502 208.094 2.74348 207.432 4.46275L194.083 37.3575C193.466 38.8979 191.925 39.9562 190.249 39.9562C188.574 39.9562 187.033 38.9425 186.416 37.3575L173.153 4.46275C172.447 2.74597 173.683 0.89502 175.532 0.89502Z" fill="#0F323E"/>
<path d="M219.109 0.89502H219.241C220.298 0.89502 221.267 1.5559 221.665 2.56957L233.913 34.011L246.161 2.56957C246.559 1.5559 247.527 0.89502 248.586 0.89502C250.435 0.89502 251.67 2.74348 251.009 4.46275L237.66 37.3575C237.043 38.8979 235.502 39.9562 233.826 39.9562C232.151 39.9562 230.61 38.9425 229.993 37.3575L216.685 4.46275C215.979 2.74597 217.257 0.89502 219.109 0.89502Z" fill="#0F323E"/>
<path d="M291.679 4.46037L279.077 26.565V37.5737C279.077 38.8954 278.02 39.9515 276.698 39.9515H276.126C274.803 39.9515 273.746 38.8954 273.746 37.5737V26.7861L260.968 4.46037C260.044 2.87525 261.19 0.892622 263.039 0.892622C263.876 0.892622 264.67 1.33238 265.066 2.03798L276.435 20.7959L287.581 2.03798C288.021 1.33238 288.771 0.8479 289.652 0.8479C291.414 0.892622 292.603 2.87277 291.679 4.45788V4.46037Z" fill="#0F323E"/>
<path d="M51.8365 29.8345C50.6905 29.8345 49.6786 29.1289 49.3256 27.9859C48.8856 26.5772 49.6786 25.1239 51.0433 24.6842C58.7972 22.2617 65.4522 17.8145 70.1657 11.9138C71.0904 10.7684 72.7662 10.5921 73.8673 11.5163C75.0133 12.4405 75.19 14.1151 74.265 15.2157C68.8456 21.9536 61.3552 26.93 52.5873 29.7029C52.366 29.7897 52.1 29.8345 51.8365 29.8345Z" fill="#0F323E"/>
<path d="M2.66589 32.0381C2.09411 32.0381 1.51985 31.8618 0.990331 31.4667C-0.155715 30.5425 -0.332222 28.8678 0.592569 27.7673C9.05241 17.1982 22.8447 10.9473 37.4723 10.9473C52.1 10.9473 65.8923 17.2454 74.3075 27.7251C75.2322 28.8705 75.0556 30.5425 73.9095 31.4245C72.7635 32.3487 71.0904 32.1724 70.2079 31.0271C62.7624 21.7349 50.5114 16.1871 37.4699 16.1871C24.4283 16.1871 12.1798 21.7349 4.73175 31.0271C4.20224 31.6879 3.40921 32.0407 2.66092 32.0407L2.66589 32.0381Z" fill="#F4E308"/>
<path d="M37.4723 32.0381C22.8448 32.0381 9.05245 25.74 0.63734 15.2604C-0.287451 14.115 -0.110947 12.443 1.0351 11.5609C2.18114 10.6367 3.85422 10.8131 4.73674 11.9585C12.1823 21.2505 24.4334 26.7983 37.4749 26.7983C42.146 26.7983 46.7277 26.0929 51.0906 24.7288C52.5001 24.289 53.9546 25.0816 54.3945 26.4455C54.8347 27.8542 54.0415 29.3078 52.6768 29.7474C47.7869 31.2456 42.6757 32.0381 37.4749 32.0381H37.4723Z" fill="#0F323E"/>
</g>
<defs>
<clipPath id="clip0_1_276">
<rect width="292" height="41" fill="white" transform="translate(0 0.5)"/>
</clipPath>
</defs>
</svg>
