<svg width="267" height="49" viewBox="0 0 267 49" fill="none" xmlns="http://www.w3.org/2000/svg">
<g clip-path="url(#clip0_1_293)">
<path fill-rule="evenodd" clip-rule="evenodd" d="M84.0049 24.4786V23.998V15.804L55.1184 3.18339L47.8332 0.0769013L47.6437 0L32.6028 38.2071L0.126373 24.4714L31.2757 10.9256L36.1425 0.00400527L0.125549 15.7968V24.4706V24.4714V33.3047L36.9053 48.8691L51.8786 10.811" fill="black"/>
<path fill-rule="evenodd" clip-rule="evenodd" d="M84.0041 24.4292L52.8548 37.9751L47.9889 48.8966L84.0058 33.1038V24.43V24.4292" fill="black"/>
</g>
<path d="M93.3505 11.6315C93.3505 8.26842 94.443 5.49443 96.6279 3.30951C98.8342 1.10317 101.758 0 105.4 0C108.656 0 111.301 0.813989 113.336 2.44197C115.392 4.04852 116.592 6.25486 116.935 9.06098H110.798C110.541 7.88284 109.919 6.98317 108.934 6.36197C107.97 5.71934 106.813 5.39803 105.464 5.39803C103.643 5.39803 102.187 5.92284 101.094 6.97246C100.023 8.00066 99.4876 9.55366 99.4876 11.6315C99.4876 13.7307 100.023 15.3051 101.094 16.3548C102.187 17.383 103.643 17.897 105.464 17.897C106.813 17.897 107.97 17.5757 108.934 16.9331C109.919 16.2905 110.541 15.3801 110.798 14.202H116.935C116.592 17.0295 115.392 19.2573 113.336 20.8852C111.301 22.4918 108.656 23.2951 105.4 23.2951C101.758 23.2951 98.8342 22.2026 96.6279 20.0177C94.443 17.8114 93.3505 15.016 93.3505 11.6315Z" fill="black"/>
<path d="M119.527 22.9738V0.321311H136.525V5.71935H125.664V8.93246H134.918V14.3305H125.664V17.5757H136.525V22.9738H119.527Z" fill="black"/>
<path d="M139.107 22.9738V0.321311H151.156L156.201 21.4636H157.711L156.522 17.7364V0.321311H162.692V22.9738H150.61L145.566 1.83147H144.055L145.244 5.55869V22.9738H139.107Z" fill="black"/>
<path d="M185.191 0.321311V5.71935H177.962V22.9738H171.825V5.71935H164.595V0.321311H185.191Z" fill="black"/>
<path d="M187.116 22.9738V0.321311H196.37C203.438 0.321311 206.973 2.43126 206.973 6.65115C206.973 7.57224 206.78 8.3541 206.394 8.99672C206.03 9.63934 205.505 10.1427 204.82 10.5069C204.135 10.8496 203.471 11.1067 202.828 11.278C202.185 11.428 201.446 11.5458 200.611 11.6315V13.1095H204.145C205.131 13.1095 205.891 13.388 206.427 13.9449C206.984 14.5019 207.262 15.273 207.262 16.2584V22.9738H201.125V15.4551H193.253V22.9738H187.116ZM193.253 10.057H196.37C198.147 10.057 199.261 9.98208 199.711 9.83213C200.461 9.55366 200.836 8.91104 200.836 7.90426C200.836 7.54011 200.793 7.22951 200.707 6.97246C200.643 6.71541 200.504 6.51191 200.29 6.36197C200.097 6.21202 199.915 6.09421 199.743 6.00853C199.593 5.90142 199.315 5.83716 198.908 5.81574C198.522 5.7729 198.212 5.75148 197.976 5.75148C197.74 5.73006 197.344 5.71935 196.787 5.71935C196.594 5.71935 196.455 5.71935 196.37 5.71935H193.253V10.057Z" fill="black"/>
<path d="M228.006 22.9738L226.271 16.3548H217.082L215.346 22.9738H209.113L215.314 0.321311H228.006L234.24 22.9738H228.006ZM218.495 10.9567H224.825L222.415 1.83147H220.905L218.495 10.9567Z" fill="black"/>
<path d="M239.244 23.2951C238.237 23.3165 237.466 23.0702 236.931 22.5561C236.417 22.0205 236.16 21.2601 236.16 20.2748V0.321311H242.297V17.897L253.157 17.5757V22.9738L239.244 23.2951Z" fill="black"/>
<path d="M111.28 48.6787L109.545 42.0597H100.355L98.62 48.6787H92.3866L98.5879 26.0262H111.28L117.513 48.6787H111.28ZM101.769 36.6616H108.099L105.689 27.5364H104.179L101.769 36.6616Z" fill="black"/>
<path d="M117.512 37.3364C117.512 33.9733 118.604 31.1993 120.789 29.0144C122.995 26.8081 125.919 25.7049 129.561 25.7049C132.817 25.7049 135.462 26.5189 137.497 28.1469C139.554 29.7534 140.753 31.9598 141.096 34.7659H134.959C134.702 33.5878 134.081 32.6881 133.095 32.0669C132.131 31.4243 130.975 31.103 129.625 31.103C127.804 31.103 126.348 31.6278 125.255 32.6774C124.184 33.7056 123.649 35.2586 123.649 37.3364C123.649 39.4356 124.184 41.0101 125.255 42.0597C126.348 43.0879 127.804 43.602 129.625 43.602C130.975 43.602 132.131 43.2807 133.095 42.638C134.081 41.9954 134.702 41.085 134.959 39.9069H141.096C140.753 42.7344 139.554 44.9622 137.497 46.5902C135.462 48.1967 132.817 49 129.561 49C125.919 49 122.995 47.9075 120.789 45.7226C118.604 43.5163 117.512 40.7209 117.512 37.3364Z" fill="black"/>
<path d="M159.884 48.6787L158.149 42.0597H148.96L147.225 48.6787H140.991L147.193 26.0262H159.884L166.118 48.6787H159.884ZM150.374 36.6616H156.703L154.294 27.5364H152.783L150.374 36.6616Z" fill="black"/>
<path d="M176.842 26.0262C178.234 26.0262 179.487 26.1012 180.601 26.2511C181.715 26.4011 182.85 26.7224 184.007 27.2151C185.185 27.6863 186.16 28.329 186.931 29.143C187.702 29.9355 188.334 31.028 188.827 32.4203C189.341 33.8127 189.598 35.4514 189.598 37.3364C189.598 39.2214 189.341 40.8601 188.827 42.2525C188.334 43.6448 187.702 44.748 186.931 45.562C186.16 46.3545 185.185 46.9972 184.007 47.4898C182.85 47.9825 181.715 48.3038 180.601 48.4538C179.487 48.6037 178.234 48.6787 176.842 48.6787H168.038V26.0262H176.842ZM176.842 43.2807C177.827 43.2807 178.577 43.2592 179.091 43.2164C179.627 43.1736 180.216 43.0557 180.858 42.8629C181.501 42.6487 181.972 42.3381 182.272 41.9311C182.593 41.5242 182.861 40.9458 183.075 40.1961C183.311 39.4249 183.429 38.4717 183.429 37.3364C183.429 36.3939 183.364 35.5906 183.236 34.9266C183.107 34.2411 182.893 33.6842 182.593 33.2557C182.293 32.8273 181.983 32.4846 181.661 32.2275C181.362 31.9705 180.912 31.7884 180.312 31.6813C179.712 31.5742 179.187 31.5099 178.738 31.4885C178.288 31.4457 177.656 31.4243 176.842 31.4243H174.175V43.2807H176.842Z" fill="black"/>
<path d="M192.136 48.6787V26.0262H209.134V31.4243H198.273V34.6374H207.527V40.0354H198.273V43.2807H209.134V48.6787H192.136Z" fill="black"/>
<path d="M211.716 48.6787V26.0262H223.765L225.822 47.1685H227.332L229.388 26.0262H241.437V48.6787H235.3V31.2636L236.457 27.5364H234.979L232.505 48.6787H220.649L218.175 27.5364H216.664L217.853 31.2636V48.6787H211.716Z" fill="black"/>
<path d="M259.799 26.0262H266.386L257.871 41.8348V48.6787H251.734V41.8348L243.284 26.0262H249.839L254.048 34.798V38.1397H255.558V34.798L259.799 26.0262Z" fill="black"/>
<defs>
<clipPath id="clip0_1_293">
<rect width="83.8794" height="48.8964" fill="white" transform="translate(0.125549)"/>
</clipPath>
</defs>
</svg>
