<svg width="291" height="93" viewBox="0 0 291 93" fill="none" xmlns="http://www.w3.org/2000/svg">
<mask id="mask0_18_1566" style="mask-type:luminance" maskUnits="userSpaceOnUse" x="1" y="2" width="110" height="89">
<path d="M61.3 37.4001C61.5 37.7001 61.7 38.0001 61.9 38.3001C62.4 38.8001 63.1 39.1001 63.9 39.1001H107.8C108.3 39.1001 108.8 38.9001 109.2 38.7001C109.6 38.5001 110 38.1001 110.2 37.6001C110.5 37.1001 110.6 36.7001 110.5 36.2001C110.5 35.7001 110.3 35.2001 110 34.8001L90.9 3.3001C90.6 2.9001 90.3 2.6001 89.9 2.4001C89.5 2.2001 89.1 2.1001 88.6 2.1001H63.7C63 2.1001 62.3 2.4001 61.7 2.9001C61.2 3.4001 60.9 4.1001 60.9 4.8001L61.1 36.3001C61.1 36.7001 61.1 37.0001 61.3 37.3001V37.4001ZM109.3 49.4001C108.8 49.1001 108.3 48.9001 107.7 48.9001H63.7C63 48.9001 62.3 49.2001 61.8 49.7001C61.5 49.9001 61.3 50.2001 61.2 50.5001C61 50.8001 61 51.2001 61 51.5001V88.3001C61 88.8001 61.2 89.3001 61.5 89.7001C61.8 90.1001 62.2 90.5001 62.7 90.7001C63.2 90.9001 63.7 91.0001 64.3 90.9001C64.8 90.9001 65.3 90.6001 65.7 90.2001L109.7 53.4001C110.1 53.0001 110.4 52.6001 110.5 52.1001C110.5 51.6001 110.5 51.1001 110.3 50.6001C110.1 50.1001 109.7 49.7001 109.3 49.4001ZM50.3 2.9001C49.8 2.4001 49.1 2.1001 48.3 2.1001H23.4C22.9 2.1001 22.5 2.1001 22.1 2.4001C21.7 2.6001 21.3 2.9001 21.1 3.3001L2 34.9001C1.7 35.3001 1.5 35.8001 1.5 36.3001C1.5 36.8001 1.5 37.3001 1.8 37.7001C2.1 38.2001 2.4 38.5001 2.8 38.8001C3.2 39.1001 3.7 39.2001 4.2 39.2001H48.2C48.9 39.2001 49.6 38.9001 50.2 38.4001C50.7 37.9001 51 37.2001 51 36.5001V4.8001C51 4.4001 51 4.1001 50.9 3.8001C50.8 3.5001 50.5 3.2001 50.3 2.9001ZM50.3 49.7001C49.7 49.2001 49.1 48.9001 48.4 48.9001H4.3C3.7 48.9001 3.2 49.1001 2.7 49.4001C2.2 49.7001 1.9 50.1001 1.7 50.6001C1.5 51.1001 1.4 51.6001 1.7 52.1001C1.9 52.6001 2.1 53.1001 2.5 53.4001L46.6 90.2001C47 90.6001 47.5 90.8001 48 90.9001C48.5 91.0001 49.1 90.9001 49.6 90.7001C50.1 90.5001 50.5 90.2001 50.8 89.7001C51.1 89.3001 51.3 88.8001 51.3 88.3001V51.5001C51.3 51.1001 51.3 50.8001 51.1 50.5001C50.9 50.2001 50.7 49.9001 50.5 49.7001H50.3Z" fill="white"/>
</mask>
<g mask="url(#mask0_18_1566)">
<path d="M126.9 -24.5999H-15.1V117.4H126.9V-24.5999Z" fill="url(#paint0_linear_18_1566)"/>
</g>
<path d="M168.1 55.7001C168.1 62.8 163.2 68.7 153.6 68.7H132.8V24.3H153.5C161.6 24.3 166.8 28.4001 166.8 35.2001C166.8 42 164.4 43.3 159.6 44.6C165.8 46.2 168.2 50.7001 168.2 55.7001H168.1ZM142 31.8V41.5H151.4C155.9 41.5 157.6 39.3 157.6 36.6C157.6 33.9 155.8 31.9 151.7 31.9H141.9L142 31.8ZM151.9 60.9001C156.8 60.9001 159 58.3 159 54.8C159 51.3 156.6 48.9001 152.3 48.9001H141.9V60.9001H151.8H151.9Z" fill="black"/>
<path d="M171 68.7V24.3H179.8V68.7H171Z" fill="black"/>
<path d="M183.5 68.7V36.5H192.3V68.7H183.5ZM183.6 32.3V24.3H192.4V32.3H183.6Z" fill="black"/>
<path d="M224.6 47.1002V68.7002H215.8V49.1002C215.8 45.7002 214.2 43.6002 211.1 43.6002C208 43.6002 204.8 46.7002 204.8 51.5002V68.7002H196V36.5002H204.6V40.9002C206.8 37.4002 209.9 35.7002 214 35.7002C220.7 35.7002 224.5 40.1002 224.5 47.1002H224.6Z" fill="black"/>
<path d="M250.2 36.5002H258V69.1002C258 77.6002 252.3 82.2002 242.6 82.2002C232.9 82.2002 228.4 78.1002 227.8 71.3002H235.9C236.4 74.3002 238.6 75.6002 242.4 75.6002C246.2 75.6002 249.1 73.2002 249.1 69.2002V64.8002C246.9 67.4002 244 68.7002 240.4 68.7002C232.3 68.7002 226.6 62.0002 226.6 52.0002C226.6 42.0002 232.5 35.7002 240.4 35.7002C248.3 35.7002 247.7 37.3002 249.8 40.5002L250.1 36.5002H250.2ZM249.6 52.0002C249.6 46.4002 246.6 42.8002 242.4 42.8002C238.2 42.8002 235.2 46.4002 235.2 52.0002C235.2 57.6002 238.2 61.2002 242.4 61.2002C246.6 61.2002 249.6 57.6002 249.6 52.0002Z" fill="black"/>
<path d="M260.6 59.1L268.7 58.8C269.2 62 271.4 63.8 275.6 63.8C279.8 63.8 281.4 62.7001 281.4 60.2001C281.4 57.7001 280.1 57.5 277.2 57L270.8 55.8C264.5 54.6 261.4 51.3001 261.4 46.4001C261.4 41.5001 266.6 35.8 274.5 35.8C282.4 35.8 287.6 39.8 288.4 46.1L280.5 46.4001C280.1 43.6001 277.7 41.9001 274.4 41.9001C271.1 41.9001 269.6 43.3 269.6 45.3C269.6 47.3 270.9 48 273.2 48.5L280.1 49.9001C286.5 51.2001 289.5 54.1 289.5 59.1C289.5 64.1 283.9 69.8001 275.2 69.8001C266.5 69.8001 261.4 65.9 260.6 59V59.1Z" fill="black"/>
<defs>
<linearGradient id="paint0_linear_18_1566" x1="77.2" y1="62.4001" x2="8.60002" y2="10.7001" gradientUnits="userSpaceOnUse">
<stop stop-color="#FF164E"/>
<stop offset="1" stop-color="#FF7AAA"/>
</linearGradient>
</defs>
</svg>
