<svg width="263" height="47" viewBox="0 0 263 47" fill="none" xmlns="http://www.w3.org/2000/svg">
<mask id="mask0_1_156" style="mask-type:luminance" maskUnits="userSpaceOnUse" x="0" y="1" width="263" height="45">
<path d="M262.716 1.54541H0V45.4545H262.716V1.54541Z" fill="white"/>
</mask>
<g mask="url(#mask0_1_156)">
<mask id="mask1_1_156" style="mask-type:luminance" maskUnits="userSpaceOnUse" x="0" y="1" width="263" height="45">
<path d="M262.716 1.54541H0V45.4545H262.716V1.54541Z" fill="white"/>
</mask>
<g mask="url(#mask1_1_156)">
<path d="M213.406 12.0674H206.947L218.033 24.1964L205.996 37.3066H212.312L221.227 27.5664L230.027 37.3066H236.514L224.45 24.168L235.535 12.0817H229.219L221.283 20.7981L213.391 12.0817L213.406 12.0674ZM179.437 12.0674V37.3066H203.824V32.8417H184.533V26.5853H201.822V22.1632H184.533V16.5465H203.824V12.0817H179.437V12.0674ZM153.39 37.3066H176.258V32.8417H158.543V12.0674H153.39V37.3066ZM129.926 23.6419V16.4754H140.246C143.226 16.4754 144.987 17.7694 144.987 20.0587C144.987 22.3481 143.226 23.6419 140.246 23.6419H129.926ZM129.926 28.0358H140.515C146.264 28.0358 150.054 25.263 150.054 20.0587C150.054 14.8544 146.264 12.0817 140.515 12.0817H124.759V37.3209H129.912V28.05L129.926 28.0358ZM105 37.3066L114.127 16.9873V37.3066H119.181V12.0674H111.43L102.97 30.9791L94.5103 12.0674H86.6464V37.3066H91.6572V16.9873L100.813 37.3066H104.986H105ZM81.1956 12.0674H76.0429V37.3066H81.1956V12.0674ZM44.9421 31.818C47.3978 35.3728 53.3598 37.6905 59.3641 37.6905C66.4897 37.6905 71.9973 34.9178 71.9973 29.4007C71.9973 23.8836 66.9441 23.0021 59.7899 22.1917C53.4024 21.4521 51.7273 21.0256 51.7273 19.2055C51.7273 17.5134 53.7572 16.0773 58.2568 16.0773C62.7566 16.0773 66.1207 17.5134 68.0513 20.016L71.4863 16.7171C69.2009 13.6884 64.1478 11.6978 58.5407 11.6978C51.3867 11.6978 46.7165 14.9682 46.7165 19.7459C46.7165 24.5235 51.4576 25.9028 57.6323 26.5995C64.7155 27.3673 66.7878 27.5806 66.7878 29.9694C66.7878 32.0028 63.8069 33.2685 59.5912 33.2685C55.8721 33.2685 51.3157 32.0739 48.4342 28.2064L44.9565 31.8322L44.9421 31.818Z" fill="#1F3D4D"/>
<path d="M254.119 19.8311V14.3283H256.732C258.805 14.3283 259.953 15.4089 259.953 17.0726C259.953 18.7362 258.79 19.8169 256.744 19.8169H254.119V19.8311ZM251.407 22.1773H256.759C260.464 22.1773 262.735 20.1866 262.735 17.0868C262.735 13.987 260.464 11.9963 256.759 11.9963H251.407V22.1773ZM243.941 22.3479C247.32 22.3479 249.393 20.9544 249.393 19.2624C249.393 18.0679 248.654 17.357 247.433 16.9588C248.441 16.646 249.151 15.864 249.151 14.8259C249.151 13.0912 247.249 11.8257 244.127 11.8257C241.43 11.8257 239.242 12.9774 238.52 14.5273L240.904 15.6222C241.273 14.8544 242.38 14.1576 243.955 14.1576C245.277 14.1576 246.141 14.4989 246.141 15.0677C246.141 15.7075 245.262 15.9493 243.928 15.9493H242.096V18.0822H244.012C245.348 18.0822 246.398 18.3097 246.398 19.0064C246.398 19.7031 245.218 20.0444 243.985 20.0444C242.367 20.0444 241.088 19.3477 240.662 18.395L238.165 19.5467C238.931 21.182 240.862 22.3479 243.97 22.3479" fill="#1F3D4D"/>
<path d="M36.9525 21.4523L10.8768 6.01025L18.4426 1.54541L36.9525 12.48V21.4523Z" fill="#1F3D4D"/>
<path d="M26.1042 40.9471L0 25.4907V34.5769L18.5099 45.4547L26.1468 40.9613L26.1042 40.9329V40.9471ZM37.02 29.8987L7.35287 12.4801L7.40965 8.10059L0 12.4801V17.0587L29.6528 34.4632L29.5961 38.8568V38.9421L37.0058 34.5911V29.8987H37.02Z" fill="#1F3D4D"/>
</g>
</g>
</svg>
