<svg width="185" height="52" viewBox="0 0 185 52" fill="none" xmlns="http://www.w3.org/2000/svg">
<path d="M112.025 21.5917C111.673 21.5917 111.498 21.7667 111.498 22.1166V29.8157C111.498 30.1656 111.673 30.3406 112.025 30.3406H114.837C115.188 30.3406 115.364 30.5156 115.364 30.8655C115.364 31.2155 115.188 31.3905 114.837 31.3905H107.455C107.104 31.3905 106.928 31.2155 106.928 30.8655C106.928 30.5156 107.104 30.3406 107.455 30.3406H109.916C110.267 30.3406 110.443 30.1656 110.443 29.8157V8.46836C110.443 8.1184 110.267 7.94342 109.916 7.94342H107.455C107.104 7.94342 106.928 7.76845 106.928 7.41849C106.928 7.06853 107.104 6.89355 107.455 6.89355H119.231C121.551 6.89355 123.296 7.52348 124.468 8.78332C125.663 10.0198 126.261 11.8396 126.261 14.2426C126.261 16.6457 125.663 18.4771 124.468 19.7369C123.296 20.9734 121.551 21.5917 119.231 21.5917H112.025ZM119.231 20.5418C123.214 20.5418 125.206 18.4421 125.206 14.2426C125.206 10.0432 123.214 7.94342 119.231 7.94342H112.025C111.673 7.94342 111.498 8.1184 111.498 8.46836V20.0169C111.498 20.3669 111.673 20.5418 112.025 20.5418H119.231Z" fill="#070707"/>
<path d="M79.5359 6.89355H86.2144C86.5659 6.89355 86.7417 7.06853 86.7417 7.41849C86.7417 7.76845 86.5659 7.94342 86.2144 7.94342H84.1054C83.7539 7.94342 83.5782 8.1184 83.5782 8.46836V22.6416C83.5782 25.0679 84.3398 27.016 85.8629 28.4858C87.3861 29.9556 89.3194 30.6906 91.6627 30.6906C94.006 30.6906 95.9393 29.9556 97.4625 28.4858C98.9856 27.016 99.7472 25.0679 99.7472 22.6416V8.46836C99.7472 8.1184 99.5715 7.94342 99.22 7.94342H97.111C96.7595 7.94342 96.5837 7.76845 96.5837 7.41849C96.5837 7.06853 96.7595 6.89355 97.111 6.89355H103.789C104.141 6.89355 104.317 7.06853 104.317 7.41849C104.317 7.76845 104.141 7.94342 103.789 7.94342H101.329C100.977 7.94342 100.802 8.1184 100.802 8.46836V22.6416C100.802 25.3246 99.9347 27.5176 98.2006 29.2207C96.49 30.9005 94.3107 31.7404 91.6627 31.7404C89.0147 31.7404 86.8237 30.9005 85.0896 29.2207C83.379 27.5176 82.5237 25.3246 82.5237 22.6416V8.46836C82.5237 8.1184 82.3479 7.94342 81.9964 7.94342H79.5359C79.1844 7.94342 79.0087 7.76845 79.0087 7.41849C79.0087 7.06853 79.1844 6.89355 79.5359 6.89355Z" fill="#070707"/>
<path d="M55.9726 28.2057C53.8167 25.826 52.7388 22.8047 52.7388 19.1419C52.7388 15.479 53.8167 12.4694 55.9726 10.113C58.1284 7.73331 60.9756 6.54346 64.514 6.54346C68.0525 6.54346 70.8996 7.73331 73.0555 10.113C75.2114 12.4694 76.2893 15.479 76.2893 19.1419C76.2893 22.8047 75.2114 25.826 73.0555 28.2057C70.8996 30.5621 68.0525 31.7403 64.514 31.7403C60.9756 31.7403 58.1284 30.5621 55.9726 28.2057ZM56.7459 10.8479C54.7775 13.0176 53.7933 15.7823 53.7933 19.1419C53.7933 22.5014 54.7775 25.2661 56.7459 27.4358C58.7143 29.6055 61.3037 30.6904 64.514 30.6904C67.7244 30.6904 70.3138 29.6055 72.2822 27.4358C74.2506 25.2661 75.2348 22.5014 75.2348 19.1419C75.2348 15.7823 74.2506 13.0176 72.2822 10.8479C70.3138 8.67819 67.7244 7.59333 64.514 7.59333C61.3037 7.59333 58.7143 8.67819 56.7459 10.8479Z" fill="#070707"/>
<path d="M40.7951 19.142C42.7166 19.142 44.1929 18.6521 45.224 17.6722C46.2551 16.6923 46.7706 15.3158 46.7706 13.5427C46.7706 11.7696 46.2551 10.3931 45.224 9.41324C44.1929 8.43336 42.7166 7.94342 40.7951 7.94342H33.5893C33.2378 7.94342 33.0621 8.1184 33.0621 8.46836V18.6171C33.0621 18.967 33.2378 19.142 33.5893 19.142H40.7951ZM33.0621 29.8157C33.0621 30.1656 33.2378 30.3406 33.5893 30.3406H35.6983C36.0498 30.3406 36.2256 30.5156 36.2256 30.8655C36.2256 31.2155 36.0498 31.3905 35.6983 31.3905H29.0198C28.6683 31.3905 28.4926 31.2155 28.4926 30.8655C28.4926 30.5156 28.6683 30.3406 29.0198 30.3406H31.4803C31.8318 30.3406 32.0076 30.1656 32.0076 29.8157V8.46836C32.0076 8.1184 31.8318 7.94342 31.4803 7.94342H29.0198C28.6683 7.94342 28.4926 7.76845 28.4926 7.41849C28.4926 7.06853 28.6683 6.89355 29.0198 6.89355H40.7951C43.0681 6.89355 44.8022 7.47682 45.9973 8.64333C47.2158 9.80985 47.8251 11.443 47.8251 13.5427C47.8251 15.6425 47.2158 17.2756 45.9973 18.4421C44.8022 19.6086 43.0681 20.1919 40.7951 20.1919H40.6193C40.4319 20.1919 40.2913 20.2502 40.1975 20.3669C40.1272 20.4602 40.1507 20.5768 40.2678 20.7168L46.9463 29.8157C47.251 30.1656 47.5439 30.3406 47.8251 30.3406H50.1099C50.4614 30.3406 50.6371 30.5156 50.6371 30.8655C50.6371 31.2155 50.4614 31.3905 50.1099 31.3905H43.0798C42.7283 31.3905 42.5526 31.2155 42.5526 30.8655C42.5526 30.5156 42.7283 30.3406 43.0798 30.3406H45.3646C45.7864 30.3406 45.845 30.1656 45.5403 29.8157L38.5103 20.1919H33.5893C33.2378 20.1919 33.0621 20.3669 33.0621 20.7168V29.8157Z" fill="#070707"/>
<path d="M3.12774 19.1769C3.12774 22.4898 4.08851 25.2428 6.01005 27.4358C7.95502 29.6055 10.4038 30.6904 13.3564 30.6904C16.309 30.6904 18.9921 29.3489 21.4058 26.6659V20.0168C21.4058 19.6668 21.23 19.4918 20.8785 19.4918H18.7695C18.418 19.4918 18.2423 19.3168 18.2423 18.9669C18.2423 18.6169 18.418 18.442 18.7695 18.442H25.448C25.7995 18.442 25.9753 18.6169 25.9753 18.9669C25.9753 19.3168 25.7995 19.4918 25.448 19.4918H22.9875C22.636 19.4918 22.4603 19.6668 22.4603 20.0168V30.8654C22.4603 31.2153 22.2845 31.3903 21.933 31.3903C21.5815 31.3903 21.4058 31.2153 21.4058 30.8654V29.1156C21.4058 28.5557 21.2183 28.439 20.8434 28.7657C18.5235 30.7487 16.0747 31.7403 13.497 31.7403C10.0992 31.7403 7.34575 30.5504 5.23675 28.1707C3.12774 25.791 2.07324 22.7931 2.07324 19.1769C2.07324 15.5373 3.10431 12.5277 5.16645 10.148C7.25202 7.74497 9.91171 6.54346 13.1455 6.54346C15.9575 6.54346 18.5235 7.535 20.8434 9.51808C21.2183 9.84471 21.4058 9.72806 21.4058 9.16813V7.41835C21.4058 7.06839 21.5815 6.89341 21.933 6.89341C22.2845 6.89341 22.4603 7.06839 22.4603 7.41835V14.0675C22.4603 14.4175 22.2845 14.5924 21.933 14.5924C21.5815 14.5924 21.4058 14.4175 21.4058 14.0675V11.6178C20.7731 10.8946 20.0349 10.2297 19.1913 9.62307C17.2698 8.26991 15.2545 7.59333 13.1455 7.59333C10.2632 7.59333 7.873 8.68985 5.9749 10.8829C4.0768 13.076 3.12774 15.8406 3.12774 19.1769Z" fill="#070707"/>
<path d="M167.068 3.00244H183.18V3.65056L172.764 29.7781H169.998L178.745 7.90388C179.111 6.9722 179.478 6.12154 179.803 5.3924H176.833H167.068V3.00244Z" fill="#070707"/>
<path d="M154.494 30.1835C148.594 30.1835 145.055 24.8364 145.055 16.3703C145.055 7.94468 148.594 2.59766 154.494 2.59766C160.393 2.59766 163.974 7.94468 163.974 16.3703C163.974 24.8364 160.393 30.1835 154.494 30.1835ZM154.494 27.7125C158.766 27.7125 161.289 23.2971 161.289 16.3703C161.289 9.44347 158.766 5.02812 154.494 5.02812C150.262 5.02812 147.74 9.44347 147.74 16.3703C147.74 23.2971 150.262 27.7125 154.494 27.7125Z" fill="#070707"/>
<path d="M137.897 2.59766H138.589V29.7784H135.985V8.18773C135.985 7.70164 135.985 7.21554 136.066 6.72945C135.741 6.93199 135.456 7.09402 135.049 7.37757L130.899 9.97007L129.719 7.90417L137.897 2.59766Z" fill="#070707"/>
<path d="M177.424 49.3986C176.78 49.3986 176.243 49.2431 175.735 48.9224L176.155 48.174C176.526 48.4072 176.936 48.5336 177.346 48.5336C177.736 48.5336 177.99 48.3586 177.99 48.0865C177.99 47.7657 177.58 47.6102 177.151 47.445C176.457 47.1825 175.92 46.8229 175.92 46.1134C175.92 45.3164 176.633 44.8984 177.463 44.8984C177.961 44.8984 178.42 45.0151 178.888 45.2872L178.517 45.9968C178.195 45.8315 177.844 45.744 177.551 45.744C177.219 45.744 176.936 45.8412 176.936 46.1134C176.936 46.3953 177.258 46.5605 177.727 46.7257C178.488 47.0076 179.035 47.3672 179.035 48.0865C179.035 48.8932 178.381 49.3986 177.424 49.3986Z" fill="#070707"/>
<path d="M173.287 49.3986C172.643 49.3986 172.106 49.2431 171.599 48.9224L172.018 48.174C172.389 48.4072 172.799 48.5336 173.209 48.5336C173.6 48.5336 173.854 48.3586 173.854 48.0865C173.854 47.7657 173.444 47.6102 173.014 47.445C172.321 47.1825 171.784 46.8229 171.784 46.1134C171.784 45.3164 172.497 44.8984 173.326 44.8984C173.824 44.8984 174.283 45.0151 174.752 45.2872L174.381 45.9968C174.059 45.8315 173.707 45.744 173.414 45.744C173.082 45.744 172.799 45.8412 172.799 46.1134C172.799 46.3953 173.121 46.5605 173.59 46.7257C174.352 47.0076 174.898 47.3672 174.898 48.0865C174.898 48.8932 174.244 49.3986 173.287 49.3986Z" fill="#070707"/>
<path d="M168.755 44.8496C169.985 44.8496 170.737 45.6758 170.737 46.9782C170.737 47.1337 170.718 47.3087 170.698 47.4836H167.574C167.711 48.1834 168.258 48.5528 168.96 48.5528C169.458 48.5528 169.81 48.407 170.112 48.1446L170.561 48.8249C170.064 49.2234 169.536 49.4276 168.863 49.4276C167.467 49.4276 166.51 48.4848 166.51 47.124C166.51 45.8507 167.437 44.8496 168.755 44.8496ZM168.736 45.7147C168.16 45.7147 167.701 46.0937 167.584 46.7644H169.732C169.702 46.0743 169.292 45.7147 168.736 45.7147Z" fill="#070707"/>
<path d="M163.798 44.8496C164.794 44.8496 165.331 45.4814 165.331 46.5894V49.3012H164.267V46.6866C164.267 46.1423 164.052 45.8021 163.525 45.8021C162.861 45.8021 162.461 46.2784 162.461 46.9199V49.3012H161.396V44.9662H162.119L162.334 45.6466C162.617 45.2092 163.085 44.8496 163.798 44.8496Z" fill="#070707"/>
<path d="M159.374 44.0624C158.964 44.0624 158.71 43.7805 158.71 43.4306C158.71 43.0807 158.964 42.7988 159.374 42.7988C159.784 42.7988 160.038 43.0807 160.038 43.4403C160.038 43.7902 159.774 44.0624 159.374 44.0624ZM158.837 49.3013V44.9663H159.901V49.3013H158.837Z" fill="#070707"/>
<path d="M156.058 49.3986C155.414 49.3986 154.877 49.2431 154.369 48.9224L154.789 48.174C155.16 48.4072 155.57 48.5336 155.98 48.5336C156.371 48.5336 156.625 48.3586 156.625 48.0865C156.625 47.7657 156.215 47.6102 155.785 47.445C155.092 47.1825 154.555 46.8229 154.555 46.1134C154.555 45.3164 155.268 44.8984 156.097 44.8984C156.595 44.8984 157.054 45.0151 157.523 45.2872L157.152 45.9968C156.83 45.8315 156.478 45.744 156.185 45.744C155.853 45.744 155.57 45.8412 155.57 46.1134C155.57 46.3953 155.892 46.5605 156.361 46.7257C157.122 47.0076 157.669 47.3672 157.669 48.0865C157.669 48.8932 157.015 49.3986 156.058 49.3986Z" fill="#070707"/>
<path d="M152.137 44.9663H153.201V49.3013H152.459L152.244 48.6306C151.951 49.0971 151.473 49.3887 150.858 49.3887C149.803 49.3887 149.286 48.7181 149.286 47.6489V44.9663H150.36V47.5517C150.36 48.0863 150.565 48.4362 151.121 48.4362C151.785 48.4362 152.137 47.8725 152.137 47.2115V44.9663Z" fill="#070707"/>
<path d="M146.997 45.8411C147.632 46.1229 148.051 46.7158 148.051 47.474C148.051 48.5723 147.192 49.3012 145.972 49.3012H143.141V42.6919H145.786C146.948 42.6919 147.788 43.3917 147.788 44.422C147.788 45.0538 147.475 45.5397 146.997 45.8411ZM144.283 43.6347V45.4328H145.611C146.265 45.4328 146.626 45.0926 146.626 44.5095C146.626 43.9652 146.206 43.6347 145.591 43.6347H144.283ZM145.786 48.3584C146.44 48.3584 146.89 47.9794 146.89 47.3573C146.89 46.7547 146.46 46.3659 145.825 46.3659H144.283V48.3584H145.786Z" fill="#070707"/>
<path d="M138.998 44.8691C139.301 44.8691 139.545 44.9372 139.75 45.0538L139.476 45.948C139.31 45.8897 139.135 45.8508 138.91 45.8508C138.295 45.8508 137.875 46.2493 137.875 46.9394V49.3013H136.811V44.9663H137.534L137.739 45.6078C137.993 45.1219 138.432 44.8691 138.998 44.8691Z" fill="#070707"/>
<path d="M134.249 44.9663H135.314V49.3013H134.572L134.357 48.6306C134.064 49.0971 133.586 49.3887 132.971 49.3887C131.916 49.3887 131.399 48.7181 131.399 47.6489V44.9663H132.473V47.5517C132.473 48.0863 132.678 48.4362 133.234 48.4362C133.898 48.4362 134.249 47.8725 134.249 47.2115V44.9663Z" fill="#070707"/>
<path d="M127.891 49.4276C126.524 49.4276 125.558 48.475 125.558 47.1337C125.558 45.7924 126.524 44.8496 127.891 44.8496C129.258 44.8496 130.234 45.7924 130.234 47.1337C130.234 48.475 129.258 49.4276 127.891 49.4276ZM127.891 48.4848C128.643 48.4848 129.15 47.9307 129.15 47.1337C129.15 46.3367 128.643 45.7827 127.891 45.7827C127.149 45.7827 126.632 46.3367 126.632 47.1337C126.632 47.9307 127.149 48.4848 127.891 48.4848Z" fill="#070707"/>
<path d="M124.732 42.6919H126.04V42.7211L123.619 46.4339V49.3012H122.467V46.4339L120.046 42.7211V42.6919H121.354L122.545 44.5581C122.74 44.8691 122.896 45.1412 123.053 45.4717C123.199 45.1315 123.365 44.8594 123.551 44.5581L124.732 42.6919Z" fill="#070707"/>
<path d="M115.329 44.8496C116.559 44.8496 117.31 45.6758 117.31 46.9782C117.31 47.1337 117.291 47.3087 117.271 47.4836H114.147C114.284 48.1834 114.831 48.5528 115.534 48.5528C116.032 48.5528 116.383 48.407 116.686 48.1446L117.135 48.8249C116.637 49.2234 116.11 49.4276 115.436 49.4276C114.04 49.4276 113.083 48.4848 113.083 47.124C113.083 45.8507 114.011 44.8496 115.329 44.8496ZM115.309 45.7147C114.733 45.7147 114.274 46.0937 114.157 46.7644H116.305C116.276 46.0743 115.866 45.7147 115.309 45.7147Z" fill="#070707"/>
<path d="M110.786 49.3014V42.3032H111.85L111.86 49.3014H110.786Z" fill="#070707"/>
<path d="M107.548 44.8887C108.661 44.8887 109.345 45.4524 109.345 46.5021V49.3014H108.632L108.437 48.6502C108.115 49.107 107.597 49.3889 106.885 49.3889C106.084 49.3889 105.518 48.9418 105.518 48.1739C105.518 47.1825 106.396 46.6382 107.724 46.6382C107.949 46.6382 108.115 46.6479 108.271 46.6576V46.4633C108.271 46.0161 107.939 45.7926 107.382 45.7926C106.953 45.7926 106.475 45.9287 106.025 46.1425L105.723 45.3358C106.367 45.0442 106.963 44.8887 107.548 44.8887ZM107.197 48.5918C107.822 48.5918 108.281 48.135 108.3 47.3477C108.124 47.3283 107.988 47.3186 107.793 47.3186C107.021 47.3186 106.572 47.5907 106.572 48.067C106.572 48.4072 106.806 48.5918 107.197 48.5918Z" fill="#070707"/>
<path d="M102.979 49.4276C101.875 49.4276 100.733 48.65 100.733 47.1337C100.733 45.7147 101.778 44.8496 103.027 44.8496C103.662 44.8496 104.189 45.0343 104.648 45.4328L104.131 46.1423C103.818 45.8799 103.525 45.773 103.106 45.773C102.373 45.773 101.807 46.3076 101.807 47.1337C101.807 47.9891 102.383 48.4945 103.086 48.4945C103.555 48.4945 103.877 48.3487 104.199 48.0474L104.736 48.7569C104.248 49.204 103.75 49.4276 102.979 49.4276Z" fill="#070707"/>
<path d="M97.4477 49.428C96.5398 49.428 95.6709 49.1364 95.0168 48.6212L95.5538 47.727C96.0517 48.1547 96.7155 48.4074 97.4087 48.4074C98.0725 48.4074 98.6485 48.1061 98.6485 47.5229C98.6485 46.9009 97.9651 46.6384 97.2134 46.3954C96.1005 46.0358 95.2316 45.4332 95.2316 44.3835C95.2316 43.2171 96.2469 42.5659 97.4477 42.5659C98.219 42.5659 98.873 42.7506 99.6052 43.2366L99.1073 44.0919C98.5411 43.7323 98.053 43.5768 97.5063 43.5768C96.9205 43.5768 96.4031 43.8295 96.4031 44.3252C96.4031 44.9278 97.0767 45.1805 97.7601 45.4138C98.9121 45.7831 99.8102 46.3371 99.8102 47.4646C99.8102 48.699 98.7657 49.428 97.4477 49.428Z" fill="#070707"/>
<path d="M90.6115 49.4179C90.2698 49.4179 89.9183 49.2041 89.9183 48.7473C89.9183 48.2807 90.2698 48.0669 90.6115 48.0669C90.9532 48.0669 91.3046 48.2807 91.3046 48.7473C91.3046 49.2041 90.9532 49.4179 90.6115 49.4179Z" fill="#070707"/>
<path d="M86.9964 44.8496C87.9532 44.8496 88.4901 45.4911 88.4901 46.5117V49.3012H87.426V46.6283C87.426 46.1034 87.1526 45.8021 86.7231 45.8021C86.0495 45.8021 85.7468 46.395 85.7468 46.9782V49.3012H84.6925V46.6186C84.6925 46.1715 84.4582 45.8021 83.9798 45.8021C83.316 45.8021 83.0133 46.395 83.0133 46.9782V49.3012H81.9492V44.9662H82.6716L82.8864 45.6563C83.1793 45.1412 83.6577 44.8496 84.2727 44.8496C84.8975 44.8496 85.3563 45.1412 85.5809 45.6175C85.864 45.1509 86.3424 44.8496 86.9964 44.8496Z" fill="#070707"/>
<path d="M78.7119 44.8887C79.8248 44.8887 80.5082 45.4524 80.5082 46.5021V49.3014H79.7955L79.6003 48.6502C79.2781 49.107 78.7607 49.3889 78.048 49.3889C77.2475 49.3889 76.6813 48.9418 76.6813 48.1739C76.6813 47.1825 77.5599 46.6382 78.8876 46.6382C79.1121 46.6382 79.2781 46.6479 79.4343 46.6576V46.4633C79.4343 46.0161 79.1024 45.7926 78.5459 45.7926C78.1164 45.7926 77.638 45.9287 77.1889 46.1425L76.8863 45.3358C77.5306 45.0442 78.1261 44.8887 78.7119 44.8887ZM78.3604 48.5918C78.9852 48.5918 79.4441 48.135 79.4636 47.3477C79.2879 47.3283 79.1512 47.3186 78.9559 47.3186C78.1847 47.3186 77.7356 47.5907 77.7356 48.067C77.7356 48.4072 77.9699 48.5918 78.3604 48.5918Z" fill="#070707"/>
<path d="M73.8581 44.8496C75.0881 44.8496 75.8398 45.6758 75.8398 46.9782C75.8398 47.1337 75.8203 47.3087 75.8008 47.4836H72.6768C72.8135 48.1834 73.3602 48.5528 74.0631 48.5528C74.561 48.5528 74.9124 48.407 75.215 48.1446L75.6641 48.8249C75.1662 49.2234 74.6391 49.4276 73.9654 49.4276C72.5694 49.4276 71.6127 48.4848 71.6127 47.124C71.6127 45.8507 72.5401 44.8496 73.8581 44.8496ZM73.8385 45.7147C73.2625 45.7147 72.8037 46.0937 72.6865 46.7644H74.8343C74.805 46.0743 74.395 45.7147 73.8385 45.7147Z" fill="#070707"/>
<path d="M71.684 42.6919V43.7513H69.8096V49.3012H68.6576V43.7513H66.7734V42.6919H71.684Z" fill="#070707"/>
<path d="M63.5777 44.8691C63.8803 44.8691 64.1244 44.9372 64.3294 45.0538L64.056 45.948C63.8901 45.8897 63.7144 45.8508 63.4898 45.8508C62.8748 45.8508 62.455 46.2493 62.455 46.9394V49.3013H61.3909V44.9663H62.1133L62.3183 45.6078C62.5721 45.1219 63.0115 44.8691 63.5777 44.8691Z" fill="#070707"/>
<path d="M58.8288 44.9663H59.8929V49.3013H59.151L58.9362 48.6306C58.6433 49.0972 58.165 49.3887 57.5499 49.3887C56.4956 49.3887 55.9781 48.7181 55.9781 47.6489V44.9663H57.052V47.5517C57.052 48.0863 57.257 48.4362 57.8135 48.4362C58.4774 48.4362 58.8288 47.8725 58.8288 47.2115V44.9663Z" fill="#070707"/>
<path d="M52.4756 49.4276C51.1088 49.4276 50.1423 48.475 50.1423 47.1337C50.1423 45.7924 51.1088 44.8496 52.4756 44.8496C53.8423 44.8496 54.8186 45.7924 54.8186 47.1337C54.8186 48.475 53.8423 49.4276 52.4756 49.4276ZM52.4756 48.4848C53.2273 48.4848 53.7349 47.9307 53.7349 47.1337C53.7349 46.3367 53.2273 45.7827 52.4756 45.7827C51.7336 45.7827 51.2162 46.3367 51.2162 47.1337C51.2162 47.9307 51.7336 48.4848 52.4756 48.4848Z" fill="#070707"/>
<path d="M49.3113 42.6919H50.6194V42.7211L48.1983 46.434V49.3012H47.0464V46.434L44.6252 42.7211V42.6919H45.9334L47.1245 44.5581C47.3197 44.8691 47.4759 45.1412 47.6321 45.4717C47.7785 45.1315 47.9445 44.8594 48.13 44.5581L49.3113 42.6919Z" fill="#070707"/>
<path d="M41.1115 44.9663H42.2342V44.9955L40.6039 49.3401H40.2719L39.0614 46.92L37.8411 49.3401H37.5189L35.8885 44.9955V44.9663H37.021L37.6946 46.8908C37.7532 47.0657 37.802 47.231 37.8508 47.4157C37.9289 47.2213 38.007 47.056 38.0949 46.8811L38.9442 45.1801H39.1688L40.0181 46.8811C40.1157 47.056 40.1938 47.231 40.2719 47.4254C40.3207 47.231 40.3793 47.056 40.4379 46.8908L41.1115 44.9663Z" fill="#070707"/>
<path d="M33.0536 49.4276C31.6868 49.4276 30.7203 48.475 30.7203 47.1337C30.7203 45.7924 31.6868 44.8496 33.0536 44.8496C34.4203 44.8496 35.3966 45.7924 35.3966 47.1337C35.3966 48.475 34.4203 49.4276 33.0536 49.4276ZM33.0536 48.4848C33.8053 48.4848 34.3129 47.9307 34.3129 47.1337C34.3129 46.3367 33.8053 45.7827 33.0536 45.7827C32.3116 45.7827 31.7942 46.3367 31.7942 47.1337C31.7942 47.9307 32.3116 48.4848 33.0536 48.4848Z" fill="#070707"/>
<path d="M29.4982 44.8691C29.8008 44.8691 30.0449 44.9372 30.2499 45.0538L29.9766 45.948C29.8106 45.8897 29.6349 45.8508 29.4103 45.8508C28.7953 45.8508 28.3755 46.2493 28.3755 46.9394V49.3013H27.3114V44.9663H28.0338L28.2388 45.6078C28.4927 45.1219 28.932 44.8691 29.4982 44.8691Z" fill="#070707"/>
<path d="M23.1383 45.598H25.9402V48.2125C25.2861 48.9998 24.3391 49.4275 23.1871 49.4275C21.1468 49.4275 19.741 47.9501 19.741 45.9867C19.741 44.072 21.0882 42.5654 23.2067 42.5654C24.2708 42.5654 25.1299 42.9639 25.7742 43.6249L25.1396 44.383C24.6027 43.8581 24.0072 43.5957 23.2457 43.5957C21.8204 43.5957 20.9125 44.5968 20.9125 45.9965C20.9125 47.4447 21.879 48.4069 23.2848 48.4069C23.9389 48.4069 24.5051 48.1931 24.9151 47.7752V46.5505H23.1383V45.598Z" fill="#070707"/>
</svg>
